<svg id="visual" viewBox="0 0 900 600" width="900" height="600" xmlns="http://www.w3.org/2000/svg" xmlns:xlink="http://www.w3.org/1999/xlink" version="1.1"><rect x="0" y="0" width="900" height="600" fill="#002233"></rect><path d="M0 79L15 88C30 97 60 115 90 112.8C120 110.7 150 88.3 180 85.2C210 82 240 98 270 105.8C300 113.7 330 113.3 360 113.7C390 114 420 115 450 104.8C480 94.7 510 73.3 540 74.8C570 76.3 600 100.7 630 106C660 111.3 690 97.7 720 99.2C750 100.7 780 117.3 810 116.3C840 115.3 870 96.7 885 87.3L900 78L900 0L885 0C870 0 840 0 810 0C780 0 750 0 720 0C690 0 660 0 630 0C600 0 570 0 540 0C510 0 480 0 450 0C420 0 390 0 360 0C330 0 300 0 270 0C240 0 210 0 180 0C150 0 120 0 90 0C60 0 30 0 15 0L0 0Z" fill="#0066FF" stroke-linecap="round" stroke-linejoin="miter"></path></svg>