<svg id="visual" viewBox="0 0 900 600" width="900" height="600" xmlns="http://www.w3.org/2000/svg" xmlns:xlink="http://www.w3.org/1999/xlink" version="1.1"><path d="M0 74L21.5 80.8C43 87.7 86 101.3 128.8 101.8C171.7 102.3 214.3 89.7 257.2 88.5C300 87.3 343 97.7 385.8 107.2C428.7 116.7 471.3 125.3 514.2 127.3C557 129.3 600 124.7 642.8 119.7C685.7 114.7 728.3 109.3 771.2 108.5C814 107.7 857 111.3 878.5 113.2L900 115L900 0L878.5 0C857 0 814 0 771.2 0C728.3 0 685.7 0 642.8 0C600 0 557 0 514.2 0C471.3 0 428.7 0 385.8 0C343 0 300 0 257.2 0C214.3 0 171.7 0 128.8 0C86 0 43 0 21.5 0L0 0Z" fill="#273c75" stroke-linecap="round" stroke-linejoin="miter"></path></svg>